<svg xmlns="http://www.w3.org/2000/svg" viewBox="0 0 424 340.033"><defs><linearGradient id="a" x1="1" x2="0" y1=".5" y2=".5" gradientUnits="objectBoundingBox"><stop offset="0" stop-color="#fff" stop-opacity="0"/><stop offset="1" stop-color="#fff"/></linearGradient></defs><g data-name="Group 137"><g data-name="Group 127"><g data-name="Group 124"><g data-name="Group 123"><path fill="url(#a)" d="M420.5 53.033a2.773 2.773 0 0 1 0-5.54h.836a2.773 2.773 0 0 1 0 5.54Zm-46.426 0a2.773 2.773 0 0 1 0-5.54h.835a2.773 2.773 0 0 1 0 5.54Zm-46.427 0a2.773 2.773 0 0 1 0-5.54h.835a2.773 2.773 0 0 1 0 5.54Zm-46.427 0a2.773 2.773 0 0 1 0-5.54h.836a2.773 2.773 0 0 1 0 5.54Zm-46.427 0a2.773 2.773 0 0 1 0-5.54h.836a2.773 2.773 0 0 1 0 5.54Zm-46.427 0a2.773 2.773 0 0 1 0-5.54h.836a2.773 2.773 0 0 1 0 5.54Zm-46.427 0a2.773 2.773 0 0 1 0-5.54h.836a2.773 2.773 0 0 1 0 5.54Zm-46.426 0a2.773 2.773 0 0 1 0-5.54h.835a2.773 2.773 0 0 1 0 5.54Zm-46.427 0a2.773 2.773 0 0 1 0-5.54h.836a2.773 2.773 0 0 1 0 5.54Zm-46.427 0a2.773 2.773 0 0 1 0-5.54H3.5a2.773 2.773 0 0 1 0 5.54ZM420.5 5.54a2.717 2.717 0 0 1-2.659-2.77A2.717 2.717 0 0 1 420.5 0h.836A2.717 2.717 0 0 1 424 2.77a2.717 2.717 0 0 1-2.659 2.77Zm-46.426 0a2.716 2.716 0 0 1-2.66-2.77A2.716 2.716 0 0 1 374.078 0h.835a2.717 2.717 0 0 1 2.66 2.77 2.717 2.717 0 0 1-2.66 2.77Zm-46.427 0a2.717 2.717 0 0 1-2.66-2.77A2.717 2.717 0 0 1 327.65 0h.835a2.717 2.717 0 0 1 2.66 2.77 2.717 2.717 0 0 1-2.66 2.77Zm-46.427 0a2.717 2.717 0 0 1-2.659-2.77A2.717 2.717 0 0 1 281.223 0h.836a2.717 2.717 0 0 1 2.659 2.77 2.717 2.717 0 0 1-2.659 2.77Zm-46.427 0a2.717 2.717 0 0 1-2.66-2.77A2.717 2.717 0 0 1 234.8 0h.836a2.716 2.716 0 0 1 2.66 2.77 2.716 2.716 0 0 1-2.66 2.77Zm-46.427 0a2.716 2.716 0 0 1-2.66-2.77A2.716 2.716 0 0 1 188.368 0h.836a2.716 2.716 0 0 1 2.66 2.77 2.716 2.716 0 0 1-2.66 2.77Zm-46.427 0a2.717 2.717 0 0 1-2.66-2.77A2.717 2.717 0 0 1 141.941 0h.836a2.717 2.717 0 0 1 2.66 2.77 2.717 2.717 0 0 1-2.66 2.77Zm-46.426 0a2.717 2.717 0 0 1-2.66-2.77A2.717 2.717 0 0 1 95.514 0h.835a2.717 2.717 0 0 1 2.66 2.77 2.717 2.717 0 0 1-2.66 2.77Zm-46.427 0a2.717 2.717 0 0 1-2.66-2.77A2.717 2.717 0 0 1 49.087 0h.836a2.717 2.717 0 0 1 2.66 2.77 2.717 2.717 0 0 1-2.66 2.77Zm-46.426 0A2.717 2.717 0 0 1 0 2.77 2.717 2.717 0 0 1 2.66 0h.84a2.717 2.717 0 0 1 2.66 2.77A2.717 2.717 0 0 1 3.5 5.54Z" data-name="Union 3" transform="translate(0 287)"/></g></g></g><g data-name="Group 128"><g data-name="Group 124"><g data-name="Group 123"><path fill="url(#a)" d="M420.5 0a2.717 2.717 0 0 0-2.659 2.77 2.717 2.717 0 0 0 2.659 2.77h.836A2.717 2.717 0 0 0 424 2.77 2.717 2.717 0 0 0 421.34 0Zm-46.423 0a2.717 2.717 0 0 0-2.66 2.77 2.717 2.717 0 0 0 2.66 2.77h.836a2.717 2.717 0 0 0 2.66-2.77 2.717 2.717 0 0 0-2.66-2.77ZM327.65 0a2.717 2.717 0 0 0-2.66 2.77 2.717 2.717 0 0 0 2.66 2.77h.836a2.717 2.717 0 0 0 2.66-2.77 2.717 2.717 0 0 0-2.66-2.77Zm-46.427 0a2.717 2.717 0 0 0-2.66 2.77 2.717 2.717 0 0 0 2.66 2.77h.836a2.717 2.717 0 0 0 2.66-2.77A2.717 2.717 0 0 0 282.058 0ZM234.8 0a2.717 2.717 0 0 0-2.66 2.77 2.717 2.717 0 0 0 2.66 2.77h.836a2.716 2.716 0 0 0 2.659-2.77A2.716 2.716 0 0 0 235.632 0Zm-46.432 0a2.716 2.716 0 0 0-2.659 2.77 2.716 2.716 0 0 0 2.659 2.77h.836a2.717 2.717 0 0 0 2.66-2.77A2.717 2.717 0 0 0 189.2 0Zm-46.426 0a2.717 2.717 0 0 0-2.66 2.77 2.717 2.717 0 0 0 2.66 2.77h.836a2.717 2.717 0 0 0 2.66-2.77A2.717 2.717 0 0 0 142.777 0ZM95.514 0a2.717 2.717 0 0 0-2.66 2.77 2.717 2.717 0 0 0 2.66 2.77h.836a2.717 2.717 0 0 0 2.66-2.77A2.717 2.717 0 0 0 96.35 0ZM49.087 0a2.717 2.717 0 0 0-2.66 2.77 2.717 2.717 0 0 0 2.66 2.77h.836a2.717 2.717 0 0 0 2.66-2.77A2.717 2.717 0 0 0 49.923 0ZM2.66 0A2.717 2.717 0 0 0 0 2.77a2.717 2.717 0 0 0 2.66 2.77h.84a2.717 2.717 0 0 0 2.66-2.77A2.717 2.717 0 0 0 3.5 0ZM420.5 47.492a2.772 2.772 0 0 0 0 5.54h.836a2.772 2.772 0 0 0 0-5.54Zm-46.427 0a2.772 2.772 0 0 0 0 5.54h.836a2.772 2.772 0 0 0 0-5.54Zm-46.427 0a2.772 2.772 0 0 0 0 5.54h.836a2.772 2.772 0 0 0 0-5.54Zm-46.427 0a2.772 2.772 0 0 0 0 5.54h.836a2.772 2.772 0 0 0 0-5.54Zm-46.427 0a2.772 2.772 0 0 0 0 5.54h.836a2.772 2.772 0 0 0 0-5.54Zm-46.427 0a2.772 2.772 0 0 0 0 5.54h.836a2.772 2.772 0 0 0 0-5.54Zm-46.427 0a2.772 2.772 0 0 0 0 5.54h.836a2.772 2.772 0 0 0 0-5.54Zm-46.427 0a2.772 2.772 0 0 0 0 5.54h.836a2.772 2.772 0 0 0 0-5.54Zm-46.427 0a2.772 2.772 0 0 0 0 5.54h.836a2.772 2.772 0 0 0 0-5.54Zm-46.427 0a2.772 2.772 0 0 0 0 5.54H3.5a2.772 2.772 0 0 0 0-5.54ZM420.5 94.984a2.773 2.773 0 0 0 0 5.541h.836a2.773 2.773 0 0 0 0-5.541Zm-46.427 0a2.773 2.773 0 0 0 0 5.541h.836a2.773 2.773 0 0 0 0-5.541Zm-46.427 0a2.773 2.773 0 0 0 0 5.541h.836a2.773 2.773 0 0 0 0-5.541Zm-46.427 0a2.773 2.773 0 0 0 0 5.541h.836a2.773 2.773 0 0 0 0-5.541Zm-46.427 0a2.773 2.773 0 0 0 0 5.541h.836a2.773 2.773 0 0 0 0-5.541Zm-46.427 0a2.773 2.773 0 0 0 0 5.541h.836a2.773 2.773 0 0 0 0-5.541Zm-46.427 0a2.773 2.773 0 0 0 0 5.541h.836a2.773 2.773 0 0 0 0-5.541Zm-46.427 0a2.773 2.773 0 0 0 0 5.541h.836a2.773 2.773 0 0 0 0-5.541Zm-46.427 0a2.773 2.773 0 0 0 0 5.541h.836a2.773 2.773 0 0 0 0-5.541Zm-46.427 0a2.773 2.773 0 0 0 0 5.541H3.5a2.773 2.773 0 0 0 0-5.541ZM420.5 142.476a2.773 2.773 0 0 0 0 5.541h.836a2.773 2.773 0 0 0 0-5.541Zm-46.427 0a2.773 2.773 0 0 0 0 5.541h.836a2.773 2.773 0 0 0 0-5.541Zm-46.427 0a2.773 2.773 0 0 0 0 5.541h.836a2.773 2.773 0 0 0 0-5.541Zm-46.427 0a2.773 2.773 0 0 0 0 5.541h.836a2.773 2.773 0 0 0 0-5.541Zm-46.427 0a2.773 2.773 0 0 0 0 5.541h.836a2.773 2.773 0 0 0 0-5.541Zm-46.427 0a2.773 2.773 0 0 0 0 5.541h.836a2.773 2.773 0 0 0 0-5.541Zm-46.427 0a2.773 2.773 0 0 0 0 5.541h.836a2.773 2.773 0 0 0 0-5.541Zm-46.427 0a2.773 2.773 0 0 0 0 5.541h.836a2.773 2.773 0 0 0 0-5.541Zm-46.427 0a2.773 2.773 0 0 0 0 5.541h.836a2.773 2.773 0 0 0 0-5.541Zm-46.427 0a2.773 2.773 0 0 0 0 5.541H3.5a2.773 2.773 0 0 0 0-5.541ZM420.5 189.968a2.772 2.772 0 0 0 0 5.54h.836a2.772 2.772 0 0 0 0-5.54Zm-46.427 0a2.772 2.772 0 0 0 0 5.54h.836a2.772 2.772 0 0 0 0-5.54Zm-46.427 0a2.772 2.772 0 0 0 0 5.54h.836a2.772 2.772 0 0 0 0-5.54Zm-46.427 0a2.772 2.772 0 0 0 0 5.54h.836a2.772 2.772 0 0 0 0-5.54Zm-46.427 0a2.772 2.772 0 0 0 0 5.54h.836a2.772 2.772 0 0 0 0-5.54Zm-46.427 0a2.772 2.772 0 0 0 0 5.54h.836a2.772 2.772 0 0 0 0-5.54Zm-46.427 0a2.772 2.772 0 0 0 0 5.54h.836a2.772 2.772 0 0 0 0-5.54Zm-46.427 0a2.772 2.772 0 0 0 0 5.54h.836a2.772 2.772 0 0 0 0-5.54Zm-46.427 0a2.772 2.772 0 0 0 0 5.54h.836a2.772 2.772 0 0 0 0-5.54Zm-46.427 0a2.772 2.772 0 0 0 0 5.54H3.5a2.772 2.772 0 0 0 0-5.54ZM420.5 237.459a2.773 2.773 0 0 0 0 5.541h.836a2.773 2.773 0 0 0 0-5.541Zm-46.427 0a2.773 2.773 0 0 0 0 5.541h.836a2.773 2.773 0 0 0 0-5.541Zm-46.427 0a2.773 2.773 0 0 0 0 5.541h.836a2.773 2.773 0 0 0 0-5.541Zm-46.427 0a2.773 2.773 0 0 0 0 5.541h.836a2.773 2.773 0 0 0 0-5.541Zm-46.427 0a2.773 2.773 0 0 0 0 5.541h.836a2.773 2.773 0 0 0 0-5.541Zm-46.427 0a2.773 2.773 0 0 0 0 5.541h.836a2.773 2.773 0 0 0 0-5.541Zm-46.427 0a2.773 2.773 0 0 0 0 5.541h.836a2.773 2.773 0 0 0 0-5.541Zm-46.427 0a2.773 2.773 0 0 0 0 5.541h.836a2.773 2.773 0 0 0 0-5.541Zm-46.427 0a2.773 2.773 0 0 0 0 5.541h.836a2.773 2.773 0 0 0 0-5.541Zm-46.427 0a2.773 2.773 0 0 0 0 5.541H3.5a2.773 2.773 0 0 0 0-5.541Z" data-name="Union 3"/></g></g></g></g></svg>