<svg xmlns="http://www.w3.org/2000/svg" viewBox="0 0 241.394 160.98">
  <defs>
    <linearGradient id="a" x2="1.009" y1=".537" y2=".538">
      <stop offset="0" stop-color="#95c11e"/>
      <stop offset="1" stop-color="#fff"/>
    </linearGradient>
  </defs>
  <path fill="url(#a)" d="M238.157 160.98a1.591 1.591 0 0 1 0-3.156h.925a1.591 1.591 0 0 1 0 3.156Zm-29.6 0a1.591 1.591 0 0 1 0-3.156h.925a1.591 1.591 0 0 1 0 3.156Zm-29.6 0a1.591 1.591 0 0 1 0-3.156h.925a1.591 1.591 0 0 1 0 3.156Zm-29.6 0a1.591 1.591 0 0 1 0-3.156h.926a1.591 1.591 0 0 1 0 3.156Zm-29.6 0a1.591 1.591 0 0 1 0-3.156h.925a1.591 1.591 0 0 1 0 3.156Zm-29.6 0a1.591 1.591 0 0 1 0-3.156h.943a1.591 1.591 0 0 1 0 3.156Zm-29.6 0a1.591 1.591 0 0 1 0-3.156h.943a1.591 1.591 0 0 1 0 3.156Zm-29.6 0a1.591 1.591 0 0 1 0-3.156h.925a1.591 1.591 0 0 1 0 3.156Zm-29.6 0a1.591 1.591 0 0 1 0-3.156h.925a1.591 1.591 0 0 1 0 3.156Zm237.694-31.564a1.592 1.592 0 0 1 0-3.157h.925a1.592 1.592 0 0 1 0 3.157Zm-29.6 0a1.592 1.592 0 0 1 0-3.157h.925a1.592 1.592 0 0 1 0 3.157Zm-29.6 0a1.592 1.592 0 0 1 0-3.157h.925a1.592 1.592 0 0 1 0 3.157Zm-29.6 0a1.592 1.592 0 0 1 0-3.157h.925a1.592 1.592 0 0 1 0 3.157Zm-29.6 0a1.592 1.592 0 0 1 0-3.157h.925a1.592 1.592 0 0 1 0 3.157Zm-29.6 0a1.592 1.592 0 0 1 0-3.157h.926a1.592 1.592 0 0 1 0 3.157Zm-29.6 0a1.592 1.592 0 0 1 0-3.157h.925a1.592 1.592 0 0 1 0 3.157Zm-29.6 0a1.592 1.592 0 0 1 0-3.157h.925a1.592 1.592 0 0 1 0 3.157Zm-29.6 0a1.592 1.592 0 0 1 0-3.157h.925a1.592 1.592 0 0 1 0 3.157ZM238.157 97.85a1.591 1.591 0 0 1 0-3.156h.925a1.591 1.591 0 0 1 0 3.156Zm-29.6 0a1.591 1.591 0 0 1 0-3.156h.925a1.591 1.591 0 0 1 0 3.156Zm-29.6 0a1.591 1.591 0 0 1 0-3.156h.925a1.591 1.591 0 0 1 0 3.156Zm-29.6 0a1.591 1.591 0 0 1 0-3.156h.926a1.591 1.591 0 0 1 0 3.156Zm-29.6 0a1.591 1.591 0 0 1 0-3.156h.925a1.591 1.591 0 0 1 0 3.156Zm-29.6 0a1.591 1.591 0 0 1 0-3.156h.943a1.591 1.591 0 0 1 0 3.156Zm-29.6 0a1.591 1.591 0 0 1 0-3.156h.943a1.591 1.591 0 0 1 0 3.156Zm-29.6 0a1.591 1.591 0 0 1 0-3.156h.925a1.591 1.591 0 0 1 0 3.156Zm-29.6 0a1.591 1.591 0 0 1 0-3.156h.925a1.591 1.591 0 0 1 0 3.156Zm237.725-31.564a1.591 1.591 0 0 1 0-3.156h.925a1.591 1.591 0 0 1 0 3.156Zm-29.6 0a1.591 1.591 0 0 1 0-3.156h.925a1.591 1.591 0 0 1 0 3.156Zm-29.6 0a1.591 1.591 0 0 1 0-3.156h.925a1.591 1.591 0 0 1 0 3.156Zm-29.6 0a1.591 1.591 0 0 1 0-3.156h.925a1.591 1.591 0 0 1 0 3.156Zm-29.6 0a1.591 1.591 0 0 1 0-3.156h.925a1.591 1.591 0 0 1 0 3.156Zm-29.6 0a1.591 1.591 0 0 1 0-3.156h.926a1.591 1.591 0 0 1 0 3.156Zm-29.6 0a1.591 1.591 0 0 1 0-3.156h.925a1.591 1.591 0 0 1 0 3.156Zm-29.6 0a1.591 1.591 0 0 1 0-3.156h.925a1.591 1.591 0 0 1 0 3.156Zm-29.6 0a1.591 1.591 0 0 1 0-3.156h.925a1.591 1.591 0 0 1 0 3.156Zm236.8-31.564a1.592 1.592 0 0 1 0-3.157h.925a1.592 1.592 0 0 1 0 3.157Zm-29.6 0a1.592 1.592 0 0 1 0-3.157h.925a1.592 1.592 0 0 1 0 3.157Zm-29.6 0a1.592 1.592 0 0 1 0-3.157h.925a1.592 1.592 0 0 1 0 3.157Zm-29.6 0a1.592 1.592 0 0 1 0-3.157h.925a1.592 1.592 0 0 1 0 3.157Zm-29.6 0a1.592 1.592 0 0 1 0-3.157h.925a1.592 1.592 0 0 1 0 3.157Zm-29.6 0a1.592 1.592 0 0 1 0-3.157h.926a1.592 1.592 0 0 1 0 3.157Zm-29.6 0a1.592 1.592 0 0 1 0-3.157h.925a1.592 1.592 0 0 1 0 3.157Zm-29.6 0a1.592 1.592 0 0 1 0-3.157h.925a1.592 1.592 0 0 1 0 3.157Zm-29.6 0a1.592 1.592 0 0 1 0-3.157h.925a1.592 1.592 0 0 1 0 3.157Zm236.8-31.566a1.492 1.492 0 0 1-1.387-1.578A1.492 1.492 0 0 1 239.082 0h.925a1.492 1.492 0 0 1 1.388 1.579 1.492 1.492 0 0 1-1.388 1.578Zm-29.6 0a1.492 1.492 0 0 1-1.382-1.577A1.492 1.492 0 0 1 209.486 0h.925a1.492 1.492 0 0 1 1.389 1.579 1.492 1.492 0 0 1-1.387 1.578Zm-29.6 0a1.492 1.492 0 0 1-1.382-1.577A1.493 1.493 0 0 1 179.889 0h.925a1.492 1.492 0 0 1 1.386 1.579 1.492 1.492 0 0 1-1.388 1.578Zm-29.6 0a1.492 1.492 0 0 1-1.388-1.578 1.492 1.492 0 0 1 1.4-1.578h.925a1.492 1.492 0 0 1 1.387 1.579 1.492 1.492 0 0 1-1.387 1.578Zm-29.6 0a1.492 1.492 0 0 1-1.388-1.578A1.492 1.492 0 0 1 120.7 0h.925a1.492 1.492 0 0 1 1.388 1.579 1.492 1.492 0 0 1-1.388 1.578Zm-29.6 0a1.492 1.492 0 0 1-1.387-1.578A1.492 1.492 0 0 1 91.1 0h.926a1.492 1.492 0 0 1 1.387 1.579 1.492 1.492 0 0 1-1.387 1.578Zm-29.6 0a1.492 1.492 0 0 1-1.388-1.578A1.492 1.492 0 0 1 61.5 0h.925a1.493 1.493 0 0 1 1.388 1.579 1.492 1.492 0 0 1-1.383 1.577Zm-29.6 0a1.492 1.492 0 0 1-1.387-1.578A1.492 1.492 0 0 1 31.908 0h.925a1.492 1.492 0 0 1 1.388 1.579 1.492 1.492 0 0 1-1.388 1.578Zm-29.6 0A1.492 1.492 0 0 1 .925 1.579 1.492 1.492 0 0 1 2.312 0h.925a1.493 1.493 0 0 1 1.388 1.579 1.492 1.492 0 0 1-1.388 1.577Z"/>
</svg>
