<?xml version="1.0" encoding="UTF-8"?> <svg xmlns="http://www.w3.org/2000/svg" xmlns:v="https://vecta.io/nano" viewBox="0 0 98.5 74.58"><path d="M92.112 14.504H.001v25.423l2.8 2.806a9.474 9.474 0 0 0-2.8 5.629v20.765c.033.012 5.5 5.457 5.5 5.457h72.036v-24.22l-7.634-7.654 23.273-.011V30.027l5.327-9.115zM48.585 1.156l-.928 1.992a7.421 7.421 0 0 0-3.315-1.095c-.806 0-1.353.289-1.353.867 0 1.962 5.672.867 5.657 4.7 0 2.083-1.809 3.209-4.167 3.209a7.474 7.474 0 0 1-4.7-1.688l.958-1.962a6.3 6.3 0 0 0 3.771 1.6c.988 0 1.581-.365 1.581-1.019 0-2.007-5.672-.836-5.672-4.608 0-1.931 1.657-3.148 4.121-3.148a7.608 7.608 0 0 1 4.047 1.152zm1.899 9.594V.106h2.4V10.75zM59.912.106c3.3 0 5.6 2.175 5.6 5.322 0 3.132-2.327 5.322-5.687 5.322H55.4V.106zm-2.114 8.622h2.175a3.067 3.067 0 0 0 3.087-3.285 3.141 3.141 0 0 0-3.194-3.315h-2.068zm18.551-6.934l-1.4 1.7a3.852 3.852 0 0 0-2.768-1.384 3.277 3.277 0 0 0 0 6.554 4.108 4.108 0 0 0 2.768-1.247l1.414 1.536a6.231 6.231 0 0 1-4.3 1.9A5.418 5.418 0 1 1 72.154.026a6.057 6.057 0 0 1 4.195 1.768zm11.009 4.501c0 2.813-1.84 4.562-4.775 4.562s-4.835-1.749-4.835-4.562V.106h2.4v6.189a2.3 2.3 0 0 0 2.433 2.464 2.253 2.253 0 0 0 2.372-2.464V.106h2.4zm6.81-6.189c2.707 0 4.258 1.338 4.258 3.7 0 2.478-1.551 3.908-4.258 3.908h-2.113v3.041h-2.4V.106zm-2.113 5.6h1.992c1.338 0 2.1-.608 2.1-1.825 0-1.186-.761-1.779-2.1-1.779h-1.992z" fill="#fff"></path><path d="M7.495 29.352v7.305h-4.22V17.538h11.933v3.784H7.495v4.249h6.84v3.784zm9.022 7.305l5.53-19.122h4.54l5.5 19.122H27.75l-.786-3.027h-5.559l-.756 3.027zm5.792-6.607h3.755l-1.889-7.392zm16.617-4.278v10.885h-3.929V17.538h3.609l4.366 7.655 4.31-7.655h3.609V36.66h-4.1V25.888l-2.649 4.54h-2.445zm20.198 10.885h-4.22V17.538h4.22zm8.236-3.783h7.131v3.783H63.14V17.538h4.22zm11.386-15.336l3.085 7.277 3.056-7.277h4.28l-5.326 11.351v7.771h-4.22v-7.713l-5.328-11.409zM36.023 58.534c0 4.172-2.923 6.791-7.248 6.791s-7.248-2.619-7.248-6.791V51.5c0-4.172 2.5-6.791 7.248-6.791 4.324 0 7.248 2.619 7.248 6.791zm-10.08-.091a2.834 2.834 0 1 0 5.664 0v-6.852a2.834 2.834 0 1 0-5.664 0zm18.041 2.717h7.648v4.058H39.457v-20.51h4.527zm14.735-3.78v7.836h-4.527V44.708h12.8v4.058h-8.274v4.558h7.337v4.056zm-47.036-3.243h6.7v3.837c0 4.172-2.8 6.791-6.974 6.791-4.264 0-7.187-2.619-7.187-6.791V50.94c0-4.172 2.65-6.791 7.278-6.791 4.172 0 6.883 2.5 6.883 6.487v.518h-4.264v-.426a2.406 2.406 0 0 0-2.68-2.619 2.657 2.657 0 0 0-2.8 2.924v6.852a2.627 2.627 0 0 0 2.741 2.923 2.666 2.666 0 0 0 2.893-2.923v-.335h-2.589z" fill="#91b508"></path></svg> 